<svg width="420" height="420" viewBox="0 0 420 420" fill="none" xmlns="http://www.w3.org/2000/svg">
<g clip-path="url(#clip0_2801_62)">
<g filter="url(#filter0_f_2801_62)">
<path d="M386.766 238.512L246.19 22L42.229 73.4609L166.488 307.545L386.766 238.512ZM176.605 318.025L174.471 311.461L369.1 248.39L371.227 254.955L176.605 318.025ZM370.901 261.437L373.085 267.983L179.604 332.535L177.42 325.989L370.901 261.437ZM372.545 274.422L374.729 280.967L178.87 346.316L176.686 339.771L372.545 274.422Z" fill="url(#paint0_linear_2801_62)"/>
<path d="M387.393 310.63L160.212 387.193L159.585 344.519L35.3257 111.69C21.5191 122.358 29.05 143.696 29.05 143.696L158.33 401L163.978 398.49L164.605 400.372L392.414 323.809L387.393 310.63Z" fill="url(#paint1_linear_2801_62)"/>
</g>
<path d="M386.766 244.467L246.19 27.955L42.229 79.4158L166.488 313.5L386.766 244.467ZM176.605 323.98L174.471 317.416L369.1 254.345L371.227 260.909L176.605 323.98ZM370.901 267.392L373.085 273.938L179.604 338.49L177.42 331.944L370.901 267.392ZM372.545 280.377L374.729 286.922L178.87 352.271L176.686 345.726L372.545 280.377Z" fill="url(#paint2_linear_2801_62)"/>
<path d="M387.393 289.025L160.212 365.588L159.585 322.914L35.3257 90.0846C21.5191 100.753 29.05 122.091 29.05 122.091L158.33 379.395L163.978 376.885L164.605 378.767L392.414 302.204L387.393 289.025Z" fill="url(#paint3_linear_2801_62)"/>
<path d="M238.164 219.916C236.571 229.284 231.84 237.833 224.75 244.16C217.659 250.486 208.628 254.215 199.14 254.735C189.651 255.255 180.267 252.534 172.528 247.02C164.788 241.506 159.153 233.525 156.545 224.387C153.938 215.249 154.513 205.496 158.177 196.728C161.841 187.959 168.376 180.697 176.711 176.131C185.045 171.565 194.683 169.967 204.045 171.599C213.407 173.231 221.936 177.996 228.234 185.113C230.515 179.322 234.554 174.392 239.783 171.015C245.011 167.639 251.167 165.986 257.384 166.288C263.6 166.591 269.566 168.835 274.442 172.704C279.317 176.573 282.858 181.872 284.566 187.857C286.274 193.843 286.063 200.213 283.963 206.072C281.863 211.931 277.98 216.985 272.859 220.523C267.738 224.061 261.637 225.905 255.414 225.796C249.191 225.687 243.158 223.631 238.164 219.916V219.916Z" fill="white"/>
<path d="M238.752 213.816C238.865 208.782 238.064 203.769 236.388 199.021C236.763 194.75 238.023 190.603 240.087 186.845C242.152 183.087 244.975 179.799 248.378 177.19C251.781 174.582 255.689 172.709 259.855 171.692C264.02 170.675 268.352 170.536 272.574 171.283C278.608 175.343 282.948 181.469 284.778 188.508C286.607 195.547 285.799 203.011 282.506 209.496C279.213 215.98 273.662 221.036 266.899 223.711C260.137 226.386 252.629 226.495 245.791 224.018C243.059 221.398 240.833 218.297 239.225 214.87C239.062 214.524 238.905 214.173 238.753 213.819L238.752 213.816Z" fill="url(#paint4_linear_2801_62)"/>
<path d="M273.903 172.221C278.497 175.696 281.987 180.428 283.949 185.844C285.911 191.26 286.262 197.128 284.96 202.74C283.657 208.351 280.757 213.465 276.609 217.462C272.462 221.46 267.245 224.171 261.589 225.266C257.397 221.577 254.282 216.82 252.576 211.503C250.869 206.185 250.635 200.505 251.898 195.065C253.161 189.625 255.873 184.628 259.748 180.606C263.622 176.584 268.514 173.687 273.903 172.221Z" fill="url(#paint5_linear_2801_62)"/>
<path d="M188.666 254.035C179.832 249.269 173.002 241.491 169.416 232.117C165.829 222.742 165.724 212.392 169.12 202.947C172.516 193.501 179.187 185.588 187.922 180.643C196.657 175.698 206.876 174.051 216.722 176C225.555 180.766 232.385 188.544 235.972 197.918C239.558 207.293 239.663 217.643 236.267 227.088C232.871 236.534 226.2 244.448 217.465 249.392C208.73 254.337 198.512 255.984 188.666 254.035V254.035Z" fill="url(#paint6_linear_2801_62)"/>
<path d="M183.992 252.826C181.029 245.436 180.23 237.355 181.69 229.528C183.149 221.701 186.806 214.451 192.234 208.625C197.661 202.8 204.635 198.639 212.34 196.63C220.044 194.622 228.161 194.847 235.742 197.281C238.705 204.671 239.504 212.752 238.044 220.579C236.585 228.406 232.928 235.656 227.5 241.482C222.073 247.307 215.099 251.468 207.395 253.476C199.69 255.485 191.573 255.26 183.992 252.826V252.826Z" fill="url(#paint7_linear_2801_62)"/>
<path d="M208.526 134.223C218.817 129.373 225.939 120.325 229.892 107.079C217.164 101.697 205.652 101.432 195.357 106.285C185.061 111.137 177.942 120.184 173.997 133.425C176.622 134.544 179.325 135.471 182.084 136.199C191.601 138.685 200.44 138.035 208.526 134.223Z" fill="url(#paint8_linear_2801_62)"/>
<path d="M270.538 226.944C264.936 229.59 258.719 230.663 252.554 230.049C246.389 229.435 240.507 227.157 235.536 223.459L233.366 221.842L233.822 219.172C234.753 213.648 234.438 207.985 232.899 202.599C231.36 197.212 228.637 192.238 224.928 188.04L223.137 186.014L224.119 183.503C226.16 178.307 229.441 173.69 233.677 170.054C237.913 166.419 242.974 163.875 248.419 162.645C253.864 161.416 259.527 161.538 264.914 163C270.301 164.463 275.248 167.221 279.324 171.036C283.4 174.85 286.48 179.604 288.295 184.883C290.111 190.161 290.607 195.804 289.74 201.318C288.874 206.832 286.67 212.051 283.323 216.518C279.975 220.985 275.585 224.565 270.536 226.945L270.538 226.944ZM242.913 217.788C247.278 220.402 252.329 221.643 257.408 221.351C262.488 221.058 267.362 219.245 271.398 216.147C275.434 213.048 278.446 208.808 280.042 203.977C281.637 199.145 281.744 193.946 280.347 189.053C278.95 184.161 276.114 179.801 272.208 176.54C268.302 173.28 263.506 171.269 258.443 170.769C253.379 170.268 248.282 171.302 243.814 173.735C239.345 176.169 235.711 179.889 233.384 184.414C235.486 187.118 237.283 190.045 238.743 193.144C242.379 200.817 243.822 209.346 242.913 217.788V217.788Z" fill="#300F1A"/>
<path d="M270.367 226.581C264.83 229.196 258.686 230.257 252.593 229.651C246.5 229.044 240.686 226.793 235.774 223.138L240.557 216.695C244.88 219.915 250.103 221.698 255.492 221.795C260.882 221.892 266.166 220.297 270.601 217.235C275.037 214.172 278.401 209.796 280.221 204.723C282.04 199.649 282.224 194.132 280.745 188.949C279.267 183.766 276.2 179.176 271.978 175.826C267.756 172.476 262.589 170.533 257.205 170.272C251.821 170.01 246.491 171.443 241.964 174.369C237.437 177.294 233.94 181.565 231.967 186.581L224.5 183.645C226.517 178.51 229.76 173.947 233.947 170.354C238.133 166.761 243.136 164.247 248.517 163.032C253.899 161.817 259.496 161.938 264.82 163.384C270.144 164.83 275.033 167.557 279.061 171.327C283.089 175.097 286.132 179.796 287.926 185.014C289.72 190.231 290.209 195.808 289.352 201.258C288.494 206.708 286.316 211.865 283.007 216.279C279.697 220.693 275.358 224.231 270.367 226.582L270.367 226.581Z" fill="#300F1A"/>
<path d="M216.402 254.456C206.788 258.985 195.9 260.04 185.594 257.442C175.289 254.844 166.203 248.753 159.885 240.207C153.567 231.661 150.407 221.189 150.945 210.574C151.482 199.96 155.683 189.86 162.832 181.996C169.981 174.132 179.636 168.99 190.151 167.446C200.667 165.902 211.392 168.052 220.5 173.53C229.608 179.007 236.535 187.473 240.1 197.485C243.666 207.497 243.65 218.435 240.055 228.437C238.014 234.115 234.875 239.335 230.817 243.799C226.758 248.263 221.86 251.885 216.402 254.456V254.456ZM180.657 178.62C173.878 181.819 168.2 186.957 164.341 193.383C160.481 199.809 158.614 207.235 158.975 214.723C159.335 222.21 161.908 229.423 166.367 235.448C170.827 241.474 176.973 246.041 184.028 248.574C191.083 251.107 198.731 251.491 206.004 249.678C213.278 247.865 219.851 243.936 224.891 238.388C229.932 232.84 233.214 225.921 234.324 218.508C235.433 211.094 234.319 203.518 231.123 196.737C226.825 187.651 219.097 180.64 209.637 177.243C200.176 173.847 189.754 174.342 180.657 178.62V178.62Z" fill="#300F1A"/>
<path d="M196.49 197.979C195.727 198.364 194.855 198.476 194.02 198.297C193.184 198.119 192.434 197.66 191.895 196.997C191.401 196.319 191.168 195.485 191.239 194.649C191.309 193.813 191.678 193.031 192.278 192.445C207.639 176.657 218.605 157.127 224.089 135.793C229.29 115.556 229.796 93.3651 225.573 69.8497C225.438 68.8752 225.683 67.8861 226.256 67.0866C226.829 66.2872 227.688 65.7384 228.654 65.5537C229.116 65.4341 229.597 65.4096 230.069 65.4816C230.541 65.5536 230.993 65.7207 231.399 65.9726C231.804 66.2246 232.154 66.5562 232.427 66.9474C232.7 67.3386 232.892 67.7812 232.989 68.2485C237.378 92.7328 236.842 115.903 231.398 137.11C225.582 159.708 213.96 180.393 197.684 197.114C197.342 197.473 196.938 197.766 196.49 197.979Z" fill="#300F1A"/>
<path d="M210.235 137.852C198.921 143.186 186.196 142.942 172.43 137.127L169.119 135.727L170.147 132.284C174.422 117.959 182.329 107.997 193.648 102.662C204.967 97.3267 217.688 97.5718 231.454 103.387L234.765 104.787L233.737 108.23C229.469 122.549 221.561 132.514 210.235 137.852ZM179.005 131.065C183.264 132.615 187.74 133.488 192.27 133.65C197.293 133.781 202.276 132.734 206.82 130.592C211.365 128.45 215.344 125.273 218.439 121.315C221.196 117.718 223.372 113.71 224.888 109.438C220.629 107.888 216.152 107.016 211.623 106.854C206.6 106.722 201.617 107.769 197.073 109.911C192.528 112.053 188.549 115.231 185.454 119.188C182.697 122.786 180.521 126.793 179.005 131.065V131.065Z" fill="#300F1A"/>
<path d="M249.852 170.121C249.261 170.399 248.611 170.528 247.959 170.498C247.307 170.468 246.673 170.28 246.11 169.949C245.547 169.618 245.074 169.155 244.73 168.6C244.387 168.045 244.184 167.414 244.14 166.763C243.123 151.742 237.896 132.607 228.627 109.878C228.428 109.39 228.327 108.868 228.33 108.341C228.333 107.814 228.439 107.293 228.643 106.807C228.848 106.322 229.146 105.881 229.52 105.511C229.895 105.14 230.338 104.847 230.826 104.648C231.314 104.449 231.836 104.348 232.363 104.351C232.89 104.354 233.411 104.461 233.897 104.665C234.382 104.869 234.823 105.167 235.193 105.542C235.564 105.916 235.857 106.36 236.056 106.848C245.649 130.37 251.062 150.344 252.141 166.217C252.196 167.023 252.007 167.826 251.599 168.522C251.19 169.219 250.582 169.776 249.852 170.121Z" fill="#300F1A"/>
</g>
<defs>
<filter id="filter0_f_2801_62" x="6" y="1" width="407.414" height="421" filterUnits="userSpaceOnUse" color-interpolation-filters="sRGB">
<feFlood flood-opacity="0" result="BackgroundImageFix"/>
<feBlend mode="normal" in="SourceGraphic" in2="BackgroundImageFix" result="shape"/>
<feGaussianBlur stdDeviation="10.5" result="effect1_foregroundBlur_2801_62"/>
</filter>
<linearGradient id="paint0_linear_2801_62" x1="214.497" y1="22" x2="214.613" y2="363.29" gradientUnits="userSpaceOnUse">
<stop stop-color="#FFE6EF"/>
<stop offset="1" stop-color="#F3F1F2"/>
</linearGradient>
<linearGradient id="paint1_linear_2801_62" x1="209.707" y1="111.69" x2="209.794" y2="416.141" gradientUnits="userSpaceOnUse">
<stop stop-color="#FFE6EF"/>
<stop offset="1" stop-color="#F3F1F2"/>
</linearGradient>
<linearGradient id="paint2_linear_2801_62" x1="214.497" y1="27.955" x2="214.613" y2="369.245" gradientUnits="userSpaceOnUse">
<stop stop-color="#FFE6EF"/>
<stop offset="1" stop-color="#F3F1F2"/>
</linearGradient>
<linearGradient id="paint3_linear_2801_62" x1="209.707" y1="90.0846" x2="209.794" y2="394.536" gradientUnits="userSpaceOnUse">
<stop stop-color="#FFE6EF"/>
<stop offset="1" stop-color="#F3F1F2"/>
</linearGradient>
<linearGradient id="paint4_linear_2801_62" x1="237.48" y1="205.951" x2="285.545" y2="203.466" gradientUnits="userSpaceOnUse">
<stop stop-color="#FFA1C1"/>
<stop offset="1" stop-color="#F48FB1"/>
</linearGradient>
<linearGradient id="paint5_linear_2801_62" x1="250.558" y1="203.922" x2="287.141" y2="200.217" gradientUnits="userSpaceOnUse">
<stop stop-color="#EF7AA2"/>
<stop offset="1" stop-color="#F48FB1"/>
</linearGradient>
<linearGradient id="paint6_linear_2801_62" x1="169.535" y1="225.256" x2="237.967" y2="220.703" gradientUnits="userSpaceOnUse">
<stop stop-color="#FFA1C1"/>
<stop offset="1" stop-color="#F48FB1"/>
</linearGradient>
<linearGradient id="paint7_linear_2801_62" x1="179.256" y1="235.835" x2="239.936" y2="239.398" gradientUnits="userSpaceOnUse">
<stop stop-color="#EF7AA2"/>
<stop offset="1" stop-color="#F48FB1"/>
</linearGradient>
<linearGradient id="paint8_linear_2801_62" x1="163.646" y1="131.031" x2="218.591" y2="151.385" gradientUnits="userSpaceOnUse">
<stop stop-color="#72C8F9"/>
<stop offset="0.59" stop-color="#70D8BA"/>
<stop offset="1" stop-color="#6CD8C6"/>
</linearGradient>
<clipPath id="clip0_2801_62">
<rect width="420" height="420" fill="white"/>
</clipPath>
</defs>
</svg>
